<svg xmlns="http://www.w3.org/2000/svg" width="30" height="36.668" viewBox="0 0 30 36.668"><defs><style>.a{fill:#cdcdcd;}</style></defs><path class="a" d="M20,14.167A4.167,4.167,0,0,1,15.831,10V0H3.333A3.333,3.333,0,0,0,0,3.334v30a3.333,3.333,0,0,0,3.333,3.334H26.667A3.333,3.333,0,0,0,30,33.334V14.167ZM24.167,30H5.833a.833.833,0,1,1,0-1.667H24.167a.833.833,0,1,1,0,1.667Zm0-5H5.833a.833.833,0,1,1,0-1.667H24.167a.833.833,0,1,1,0,1.667Zm0-5H5.833a.833.833,0,1,1,0-1.667H24.167a.833.833,0,1,1,0,1.667Z"/><path class="a" d="M26.362,13.055l8.474-.005L23.858,2.073v8.48A2.515,2.515,0,0,0,26.362,13.055Z" transform="translate(-6.362 -0.553)"/></svg>