<svg xmlns="http://www.w3.org/2000/svg" width="29" height="33.143" viewBox="0 0 29 33.143"><defs><style>.a{fill:#cdcdcd;}</style></defs><path class="a" d="M0,30.036a3.108,3.108,0,0,0,3.107,3.107H25.893A3.108,3.108,0,0,0,29,30.036V12.429H0ZM20.714,17.348a.779.779,0,0,1,.777-.777H24.08a.779.779,0,0,1,.777.777v2.589a.779.779,0,0,1-.777.777H21.491a.779.779,0,0,1-.777-.777Zm0,8.286a.779.779,0,0,1,.777-.777H24.08a.779.779,0,0,1,.777.777v2.589A.779.779,0,0,1,24.08,29H21.491a.779.779,0,0,1-.777-.777Zm-8.286-8.286a.779.779,0,0,1,.777-.777h2.589a.779.779,0,0,1,.777.777v2.589a.779.779,0,0,1-.777.777H13.205a.779.779,0,0,1-.777-.777Zm0,8.286a.779.779,0,0,1,.777-.777h2.589a.779.779,0,0,1,.777.777v2.589a.779.779,0,0,1-.777.777H13.205a.779.779,0,0,1-.777-.777ZM4.143,17.348a.779.779,0,0,1,.777-.777H7.509a.779.779,0,0,1,.777.777v2.589a.779.779,0,0,1-.777.777H4.92a.779.779,0,0,1-.777-.777Zm0,8.286a.779.779,0,0,1,.777-.777H7.509a.779.779,0,0,1,.777.777v2.589A.779.779,0,0,1,7.509,29H4.92a.779.779,0,0,1-.777-.777ZM25.893,4.143H22.786V1.036A1.039,1.039,0,0,0,21.75,0H19.679a1.039,1.039,0,0,0-1.036,1.036V4.143H10.357V1.036A1.039,1.039,0,0,0,9.321,0H7.25A1.039,1.039,0,0,0,6.214,1.036V4.143H3.107A3.108,3.108,0,0,0,0,7.25v3.107H29V7.25A3.108,3.108,0,0,0,25.893,4.143Z"/></svg>