<svg xmlns="http://www.w3.org/2000/svg" width="31" height="26.231" viewBox="0 0 31 26.231"><defs><style>.a{fill:#cdcdcd;}</style></defs><path class="a" d="M36,15.5a3.577,3.577,0,1,0-4.77,3.358v2.6a2.385,2.385,0,0,1-2.385,2.385H21.692V18.858a3.577,3.577,0,1,0-2.385,0v4.988H9.769V18.858a3.577,3.577,0,1,0-2.385,0V31.219a3.577,3.577,0,1,0,2.385,0V26.231h9.538v4.988a3.577,3.577,0,1,0,2.385,0V26.231h7.154a4.775,4.775,0,0,0,4.769-4.769v-2.6A3.567,3.567,0,0,0,36,15.5Z" transform="translate(-5 -11.923)"/></svg>