<svg xmlns="http://www.w3.org/2000/svg" width="30" height="30" viewBox="0 0 30 30"><defs><style>.a{fill:#cdcdcd;}</style></defs><path class="a" d="M19.688,26.25H.938A.94.94,0,0,0,0,27.188v1.875A.94.94,0,0,0,.938,30h18.75a.94.94,0,0,0,.938-.937V27.188A.94.94,0,0,0,19.688,26.25ZM28.9,6.287,24.152,1.541a.941.941,0,0,0-1.324,0l-.662.662a.941.941,0,0,0,0,1.324l2.209,2.209V9.375a3.276,3.276,0,0,0,2.813,3.234v9.422a1.406,1.406,0,0,1-2.812,0V20.156A5.156,5.156,0,0,0,19.219,15H18.75V3.75A3.753,3.753,0,0,0,15,0H5.625a3.753,3.753,0,0,0-3.75,3.75V24.375H18.75V17.813h.469a2.343,2.343,0,0,1,2.344,2.344v1.629a4.394,4.394,0,0,0,3.779,4.447A4.23,4.23,0,0,0,30,22.031V8.941a3.757,3.757,0,0,0-1.1-2.654ZM15,11.25H5.625V3.75H15Z"/></svg>