<svg xmlns="http://www.w3.org/2000/svg" width="150" height="150" viewBox="0 0 150 150"><defs><style>.a,.d{fill:none;}.a{stroke:#805dc4;stroke-width:5px;}.b{fill:#805dc4;}.c{stroke:none;}</style></defs><g transform="translate(-876 -910)"><g class="a" transform="translate(876 910)"><circle class="c" cx="75" cy="75" r="75"/><circle class="d" cx="75" cy="75" r="72.5"/></g><g transform="translate(916 951)"><path class="b" d="M68.564,20.129l-7.841-5.146-1.47,2.45,1.47-2.45L39.16,1.261a7.385,7.385,0,0,0-8.331,0L9.021,15.228h0l-7.841,4.9a2.41,2.41,0,0,0-.735,3.43h0a2.41,2.41,0,0,0,3.43.735h0l4.166-2.7v32.59a8.682,8.682,0,0,0,8.576,8.576h36.51A8.682,8.682,0,0,0,61.7,54.189h0V39.242a2.45,2.45,0,0,0-4.9,0V54.189a3.769,3.769,0,0,1-3.676,3.676H16.617a3.769,3.769,0,0,1-3.676-3.676h0V18.659L33.769,5.427a3.124,3.124,0,0,1,2.94,0L58.273,19.149h0l7.841,5.146a2.479,2.479,0,0,0,3.43-.98,3.21,3.21,0,0,0-.98-3.185Z" transform="translate(-0.031 0.025)"/></g></g></svg>