<svg xmlns="http://www.w3.org/2000/svg" width="50.5" height="50.5" viewBox="0 0 50.5 50.5"><defs><style>.a{opacity:0.5;}.b{fill:#606060;stroke:#606060;stroke-width:0.5px;}</style></defs><g class="a" transform="translate(0.25 0.25)"><path class="b" d="M35.395,54.777H54.73a9.7,9.7,0,0,0-19.338,0Zm9.669-21.4a6.189,6.189,0,0,1,3.439,11.3A11.5,11.5,0,0,1,56.48,55.638a.859.859,0,0,1-.854.861H34.5a.859.859,0,0,1-.855-.861,11.5,11.5,0,0,1,7.978-10.968,6.189,6.189,0,0,1,3.439-11.3Zm0,1.724a4.456,4.456,0,1,0,4.424,4.456A4.44,4.44,0,0,0,45.064,35.1Z" transform="translate(-20.058 -19.941)"/><path class="b" d="M46.585,17.452a1.063,1.063,0,1,1,2.006-.7,25.026,25.026,0,1,1-3.853-7.075,1.065,1.065,0,0,1-1.683,1.306,22.74,22.74,0,1,0,3.526,6.47Z" transform="translate(0.01 0)"/></g></svg>