<svg xmlns="http://www.w3.org/2000/svg" width="26" height="34" viewBox="0 0 26 34"><defs><style>.a{fill:#cdcdcd;fill-rule:evenodd;}</style></defs><path class="a" d="M65,296h4a1,1,0,0,1,1,1v7a1,1,0,0,1-1,1H65a1,1,0,0,1-1-1v-7A1,1,0,0,1,65,296Zm20,0h4a1,1,0,0,1,1,1v7a1,1,0,0,1-1,1H85a1,1,0,0,1-1-1v-7A1,1,0,0,1,85,296ZM65,321h4a1,1,0,0,1,1,1v7a1,1,0,0,1-1,1H65a1,1,0,0,1-1-1v-7A1,1,0,0,1,65,321Zm20,0h4a1,1,0,0,1,1,1v7a1,1,0,0,1-1,1H85a1,1,0,0,1-1-1v-7A1,1,0,0,1,85,321Zm-7-17.145v18.29a3.507,3.507,0,0,1,2.355,2.355H82a.5.5,0,0,1,.5.5V326a.5.5,0,0,1-.5.5H80.355a3.5,3.5,0,0,1-6.71,0H72a.5.5,0,0,1-.5-.5V325a.5.5,0,0,1,.5-.5h1.647A3.507,3.507,0,0,1,76,322.145v-18.29a3.507,3.507,0,0,1-2.355-2.355H72a.5.5,0,0,1-.5-.5V300a.5.5,0,0,1,.5-.5h1.647a3.5,3.5,0,0,1,6.71,0H82a.5.5,0,0,1,.5.5V301a.5.5,0,0,1-.5.5H80.355A3.507,3.507,0,0,1,78,303.855ZM77,302a1.5,1.5,0,1,0-1.5-1.5A1.5,1.5,0,0,0,77,302Zm0,25a1.5,1.5,0,1,0-1.5-1.5A1.5,1.5,0,0,0,77,327Z" transform="translate(-64 -296)"/></svg>