<svg xmlns="http://www.w3.org/2000/svg" width="23.105" height="29.2" viewBox="0 0 23.105 29.2"><defs><style>.a{fill:#cdcdcd;}</style></defs><path class="a" d="M37.534,21.268a6.6,6.6,0,0,0,.134-1.139v-3.65a5.566,5.566,0,0,0-5.559-5.559H28.426a1.909,1.909,0,0,0-.435.033l-.938-1H25.211V8.844h.7a1.079,1.079,0,0,0,1.072-1.072v-.3A1.079,1.079,0,0,0,25.915,6.4H19.351A1.079,1.079,0,0,0,18.28,7.472v.3a1.079,1.079,0,0,0,1.072,1.072h.7V10.05A5.551,5.551,0,0,0,15.4,15.542v14.5A5.566,5.566,0,0,0,20.959,35.6H32.947a5.566,5.566,0,0,0,5.559-5.559V22.373Zm-5.458-8.438a3.659,3.659,0,0,1,3.65,3.65v2.846l-1.072-1.172-4.889-5.324ZM36.63,23.411c-1.306.77-4.186,1.44-9.041-2.411-4.989-3.951-8.606-1-10.213,1v-6.53a3.659,3.659,0,0,1,3.65-3.65h5.257l7.769,8.505,2.578,2.813v.268Z" transform="translate(-15.4 -6.4)"/></svg>