<svg xmlns="http://www.w3.org/2000/svg" width="27.505" height="28.933" viewBox="0 0 27.505 28.933"><defs><style>.a{fill:#cdcdcd;fill-rule:evenodd;}</style></defs><g transform="translate(-8.995 -8.977)"><path class="a" d="M34.945,39.985,21.431,41.961a6.184,6.184,0,0,0-1.416.375,4.742,4.742,0,0,0-3.135,4.136A2.022,2.022,0,0,0,18.9,48.487H37.177a2.015,2.015,0,0,0,2.015-2.015V44.253C39.192,41.921,37.256,39.676,34.945,39.985ZM20.008,46.571a.361.361,0,1,1,0,.04Z" transform="translate(-2.692 -10.577)"/><path class="a" d="M19.657,34.678l-2.687-9.8c-.435-1.594-1.39-2.819-3.01-2.47l-2.391.507a.566.566,0,0,0-.435.659l3.016,14.212A7.679,7.679,0,0,1,19.657,34.678Z" transform="translate(-0.727 -4.566)"/><path class="a" d="M14.3,12C13.839,9.558,12.449,8.7,9.407,9.051A.468.468,0,0,0,9,9.572l.83,6.77a.468.468,0,0,0,.52.408C14.049,16.3,15.024,15.821,14.3,12Z"/></g></svg>