<svg xmlns="http://www.w3.org/2000/svg" width="31.5" height="27" viewBox="0 0 31.5 27"><defs><style>.a{fill:#cdcdcd;}</style></defs><path class="a" d="M18,4.5A15.745,15.745,0,0,0,6.209,30.684c.077.084.148.169.225.246a1.771,1.771,0,0,0,2.609-.007,12.173,12.173,0,0,1,17.916,0,1.771,1.771,0,0,0,2.609.007l.225-.246A15.745,15.745,0,0,0,18,4.5Zm-.984,3.227a.984.984,0,0,1,1.969,0v2.531a.984.984,0,0,1-1.969,0Zm-9,13.5H5.484a.984.984,0,0,1,0-1.969H8.016a.984.984,0,0,1,0,1.969Zm3.621-7.348h0a.993.993,0,0,1-1.392,0L8.452,12.094a.993.993,0,0,1,0-1.392h0a.993.993,0,0,1,1.392,0l1.793,1.793A.985.985,0,0,1,11.637,13.88Zm11.292,2.426-3.34,5.309a2.179,2.179,0,0,1-.492.492,2.117,2.117,0,1,1-2.461-3.445l5.309-3.34a.719.719,0,0,1,.823,0A.707.707,0,0,1,22.929,16.305Zm2.827-2.426a.993.993,0,0,1-1.392,0h0a.993.993,0,0,1,0-1.392l1.793-1.793a.993.993,0,0,1,1.392,0h0a.993.993,0,0,1,0,1.392Zm4.76,7.348H27.984a.984.984,0,0,1,0-1.969h2.531a.984.984,0,0,1,0,1.969Z" transform="translate(-2.25 -4.5)"/></svg>