<svg xmlns="http://www.w3.org/2000/svg" width="29.031" height="29.13" viewBox="0 0 29.031 29.13"><defs><style>.a{fill:#cdcdcd;}</style></defs><g transform="translate(0.005 0.005)"><path class="a" d="M14.711,25.745a12.1,12.1,0,0,0,6.561-2.982h0l6.064,6.064a.984.984,0,0,0,1.392-1.392l-6.064-6.064h-.1A12.725,12.725,0,0,0,25.248,9.443a.943.943,0,0,0-1.193-.7h-.1a1.134,1.134,0,0,0-.6,1.193A10.871,10.871,0,1,1,2.087,11.928a10.862,10.862,0,0,1,11.332-9.94,12.773,12.773,0,0,1,3.38.7.961.961,0,0,0,1.193-.5.986.986,0,0,0-.5-1.292h-.1A9.723,9.723,0,0,0,13.32,0,12.969,12.969,0,0,0,0,12.525a13.032,13.032,0,0,0,12.525,13.32,15.39,15.39,0,0,0,2.187-.1Z" transform="translate(0 0)"/></g></svg>