<svg xmlns="http://www.w3.org/2000/svg" width="34.802" height="34.802" viewBox="0 0 34.802 34.802"><defs><style>.a{opacity:0.5;}.b{fill:#606060;stroke:#606060;stroke-width:0.5px;}</style></defs><g class="a" transform="translate(0.26 0.25)"><path class="b" d="M34.953,49.32H49.387a7.243,7.243,0,0,0-14.436,0Zm7.218-15.948a4.61,4.61,0,0,1,2.567,8.419,8.568,8.568,0,0,1,5.956,8.17.641.641,0,0,1-.638.641H34.288a.641.641,0,0,1-.638-.641,8.569,8.569,0,0,1,5.956-8.172,4.61,4.61,0,0,1,2.567-8.419Zm0,1.284a3.32,3.32,0,1,0,3.3,3.32A3.311,3.311,0,0,0,42.171,34.656Z" transform="translate(-25.026 -24.84)"/><path class="b" d="M31.956,11.972a.729.729,0,0,1,1.376-.481,17.169,17.169,0,1,1-2.643-4.853.731.731,0,1,1-1.155.9,15.6,15.6,0,1,0,2.419,4.439Z"/></g></svg>